<?xml version="1.0" encoding="utf-8"?>
<!-- Generator: Adobe Illustrator 23.0.2, SVG Export Plug-In . SVG Version: 6.00 Build 0)  -->
<svg version="1.1" id="shapeGroup" xmlns="http://www.w3.org/2000/svg" xmlns:xlink="http://www.w3.org/1999/xlink" x="0px" y="0px"
	 viewBox="0 0 360.8 225.3" style="enable-background:new 0 0 360.8 225.3;" xml:space="preserve">
<style type="text/css">
	.st0{stroke:#B71C1C;stroke-width:0.25;stroke-miterlimit:10;}
</style>
<path id="fill" class="st0" d="M101.8,230.2c-6.3,0-12.7-1.7-18.2-4.9l-70.2-40.5c-11.3-6.5-18.3-18.7-18.3-31.7v-81
	c0-12.2,6.1-23.6,16.2-30.5c0.7-0.5,1.4-0.9,2.2-1.3l70-40.5C89-3.3,95.3-5,101.8-5c6.3,0,12.8,1.7,18.2,4.8l73.1,42
	c0.9,0.5,1.8,0.8,2.8,0.8c0.6,0,1.2-0.1,1.6-0.2l2.4-0.8c1-0.4,1.9-0.7,3-1l71.4-22.9c3.5-1.1,7.3-1.7,11.2-1.7
	c11.7,0,22.7,5.7,29.6,15.1l43.7,60.1c4.6,6.3,7,13.8,7,21.8c0.1,7.8-2.4,15.5-7,21.9L315,195c-5.6,7.7-13.8,12.9-23.2,14.5
	c-0.1,0-0.3,0-0.4,0h-0.1c-0.7,0.1-1.3,0.2-1.8,0.2h-0.4c-0.2,0-0.3,0-0.4,0c-0.3,0-0.6,0.1-1,0.1h-2.2c-3.9,0-7.6-0.6-11.2-1.7
	l-71.4-22.7c-0.7-0.2-1.5-0.5-2.4-0.8l-0.7-0.3l-2.5-0.8c-0.5-0.2-0.9-0.2-1.6-0.2c-0.9,0-1.9,0.3-2.8,0.7l-73,41.4
	c-5.3,3-11.1,4.6-16.9,4.7l-0.9,0.1C102,230.2,101.9,230.2,101.8,230.2z M28.4,67.7c-1.4,1-2.3,2.7-2.3,4.5v81c0,2,1,3.8,2.8,4.9
	L99,198.5c0.8,0.5,1.8,0.8,2.7,0.8c0.9,0,1.9-0.3,2.7-0.8l70.2-40.5c1.6-0.9,2.6-2.6,2.7-4.5c-0.1-1.1-0.1-2.2-0.1-3V75.4
	c0-1,0.1-2,0.2-3.1v-0.2c0-2.1-1-3.8-2.8-4.9l-70.2-40.5c-0.7-0.4-1.7-0.7-2.8-0.7c-0.9,0-1.9,0.3-2.7,0.8L28.8,67.5L28.4,67.7z
	 M284.3,178.8c0.4,0.1,0.7,0.1,1,0.1c1.8,0,3.4-0.8,4.5-2.3l43.8-60.6c1.4-1.8,1.4-4.2,0-5.9l-43.8-60.7c-1-1.4-2.7-2.3-4.5-2.3
	c-0.6,0-1.2,0.1-1.6,0.2L211,70.7c-1.3,0.7-2.2,2-2.5,3.4v77.5c0.3,1.4,1.2,2.7,2.5,3.4l72.7,23.3c0.1,0,0.2,0.1,0.4,0.1
	C284.1,178.7,284.2,178.7,284.3,178.8z"/>
</svg>
